<?xml version="1.0" encoding="utf-8"?>
<!-- Generator: Adobe Illustrator 26.2.1, SVG Export Plug-In . SVG Version: 6.00 Build 0)  -->
<svg version="1.1" id="a" xmlns="http://www.w3.org/2000/svg" xmlns:xlink="http://www.w3.org/1999/xlink" x="0px" y="0px"
	 viewBox="0 0 201.3 202.7" style="enable-background:new 0 0 201.3 202.7;" xml:space="preserve">
<style type="text/css">
	.st0{fill:#3B424B;}
</style>
<path class="st0" d="M196.8,170L117,67.7L143.3,46c8.5-7,9.8-19.6,2.7-28.1l0,0c-7-8.5-19.6-9.8-28.2-2.7L34.3,83.8
	c-8.5,7-9.8,19.6-2.7,28.2l0,0c7,8.5,19.6,9.8,28.1,2.7l26.3-21.7v0l79.8,102.4c7,8.5,19.6,9.7,28.1,2.7l0,0
	C202.6,191.1,203.8,178.5,196.8,170L196.8,170z"/>
<path class="st0" d="M20.8,120.9L20.8,120.9C8.9,106.4,11,84.9,25.4,73l17.3-14.2V22.1C42.7,9.9,33.2,0,21.4,0S0,9.9,0,22.1v158.6
	c0,12.2,9.6,22.1,21.4,22.1s21.4-9.9,21.4-22.1V133C34.2,131.9,26.3,127.7,20.8,120.9L20.8,120.9z"/>
</svg>
