<?xml version="1.0" encoding="UTF-8"?><svg id="a" xmlns="http://www.w3.org/2000/svg" viewBox="0 0 201.32 202.72"><defs><style>.b{fill:#f0f1f4;}</style></defs><path class="b" d="M196.76,170L116.97,67.67l26.31-21.64c8.53-7.02,9.76-19.62,2.74-28.15h0c-7.02-8.53-19.62-9.76-28.15-2.74L34.33,83.85c-8.53,7.02-9.76,19.62-2.74,28.15h0c7.02,8.53,19.62,9.76,28.15,2.74l26.34-21.67v.02l79.82,102.35c7.03,8.52,19.63,9.74,28.15,2.71h0c8.52-7.03,9.74-19.63,2.71-28.15Z"/><path class="b" d="M20.77,120.9h0c-11.91-14.48-9.82-35.95,4.66-47.86l17.3-14.23V22.06C42.73,9.88,33.16,0,21.37,0S0,9.88,0,22.06V180.66c0,12.19,9.57,22.06,21.37,22.06s21.37-9.88,21.37-22.06v-47.64c-8.56-1.08-16.4-5.36-21.96-12.12Z"/></svg>