<?xml version="1.0" encoding="utf-8"?>
<!-- Generator: Adobe Illustrator 26.2.1, SVG Export Plug-In . SVG Version: 6.00 Build 0)  -->
<svg version="1.1" id="Button_" xmlns="http://www.w3.org/2000/svg" xmlns:xlink="http://www.w3.org/1999/xlink" x="0px" y="0px"
	 viewBox="0 0 328 60" style="enable-background:new 0 0 328 60;" xml:space="preserve">
<style type="text/css">
	.st0{fill:#B4BAC6;}
	.st1{enable-background:new    ;}
	.st2{fill:#FCFCFC;}
</style>
<g id="Group_67">
	<path id="Area" class="st0" d="M0,0h328l0,0v36c0,13.3-10.7,24-24,24H24C10.7,60,0,49.3,0,36V0L0,0z"/>
	<g class="st1">
		<path class="st2" d="M140.4,13.7c0.2,0.2,0.3,0.4,0.3,0.6c0,0.1,0,0.3-0.1,0.4l-3.7,8.7c-0.1,0.2-0.2,0.3-0.4,0.4
			c-0.2,0.1-0.3,0.2-0.5,0.2c-0.2,0-0.3-0.1-0.5-0.2s-0.3-0.2-0.3-0.4l-3.7-8.7c-0.1-0.1-0.1-0.2-0.1-0.4c0-0.3,0.1-0.5,0.3-0.7
			c0.2-0.2,0.4-0.2,0.6-0.2c0.2,0,0.3,0,0.5,0.2c0.1,0.1,0.3,0.2,0.3,0.4l3,7.1L139,14c0.1-0.2,0.2-0.3,0.3-0.4s0.3-0.2,0.5-0.2
			C140,13.5,140.3,13.6,140.4,13.7z"/>
		<path class="st2" d="M142.2,14.8c-0.1-0.1-0.2-0.3-0.2-0.6V14c0-0.3,0.1-0.5,0.2-0.6c0.2-0.1,0.4-0.2,0.7-0.2
			c0.4,0,0.6,0.1,0.7,0.2c0.1,0.1,0.2,0.3,0.2,0.6v0.3c0,0.3-0.1,0.5-0.2,0.6c-0.1,0.1-0.4,0.2-0.7,0.2
			C142.6,15,142.3,14.9,142.2,14.8z M143.6,23.7c-0.2,0.2-0.4,0.3-0.6,0.3c-0.3,0-0.5-0.1-0.6-0.3s-0.3-0.4-0.3-0.7v-6.2
			c0-0.3,0.1-0.5,0.3-0.7s0.4-0.3,0.6-0.3c0.3,0,0.5,0.1,0.6,0.3c0.2,0.2,0.3,0.4,0.3,0.7v6.2C143.8,23.3,143.7,23.6,143.6,23.7z"/>
		<path class="st2" d="M152.6,20.4c-0.2,0.2-0.4,0.2-0.6,0.2H147c0.1,0.6,0.4,1.1,0.8,1.4c0.4,0.3,0.9,0.5,1.5,0.5
			c0.4,0,0.7,0,1-0.1s0.4-0.2,0.5-0.2c0.1-0.1,0.2-0.1,0.3-0.2c0.2-0.1,0.4-0.1,0.5-0.1c0.2,0,0.4,0.1,0.5,0.2
			c0.2,0.1,0.2,0.3,0.2,0.5c0,0.3-0.1,0.5-0.4,0.7c-0.3,0.2-0.7,0.4-1.1,0.6c-0.5,0.2-0.9,0.2-1.4,0.2c-0.8,0-1.6-0.2-2.2-0.5
			c-0.6-0.3-1.1-0.8-1.4-1.4c-0.3-0.6-0.5-1.3-0.5-2.1c0-0.9,0.2-1.6,0.5-2.3c0.4-0.6,0.8-1.1,1.4-1.5c0.6-0.3,1.2-0.5,1.9-0.5
			c0.7,0,1.3,0.2,1.9,0.5c0.6,0.4,1.1,0.8,1.4,1.5c0.4,0.6,0.5,1.3,0.5,2C152.9,20,152.8,20.2,152.6,20.4z M147,19.1h3.9V19
			c0-0.4-0.2-0.8-0.6-1.1c-0.4-0.3-0.8-0.5-1.3-0.5C147.9,17.5,147.2,18,147,19.1z"/>
		<path class="st2" d="M164.2,16.2c0.2,0.2,0.2,0.4,0.2,0.7c0,0.1,0,0.2-0.1,0.3l-2.3,6.2c-0.1,0.2-0.2,0.3-0.3,0.4
			c-0.2,0.1-0.3,0.2-0.5,0.2l-0.1,0c-0.3,0-0.6-0.2-0.8-0.6l-1.3-3.7l-1.2,3.7c-0.2,0.4-0.4,0.6-0.8,0.6l-0.1,0
			c-0.2,0-0.3-0.1-0.5-0.2c-0.2-0.1-0.3-0.2-0.3-0.4l-2.3-6.2c0-0.1-0.1-0.2-0.1-0.3c0-0.2,0.1-0.5,0.2-0.7c0.2-0.2,0.4-0.3,0.7-0.3
			c0.2,0,0.4,0,0.5,0.1c0.1,0.1,0.2,0.2,0.3,0.4l1.6,4.4l1.2-3.2c0.2-0.4,0.4-0.6,0.8-0.6c0.2,0,0.4,0,0.5,0.1
			c0.1,0.1,0.2,0.2,0.3,0.4l1.2,3.1l1.6-4.3c0.1-0.2,0.2-0.3,0.3-0.4c0.1-0.1,0.3-0.1,0.6-0.1C163.9,16,164.1,16.1,164.2,16.2z"/>
		<path class="st2" d="M178.6,23.2c0,0.3-0.1,0.5-0.3,0.6c-0.2,0.2-0.4,0.2-0.6,0.2c-0.2,0-0.3-0.1-0.5-0.2
			c-0.1-0.1-0.3-0.3-0.3-0.5l-0.8-1.8h-4.5l-0.8,1.8c-0.1,0.2-0.2,0.3-0.3,0.4c-0.1,0.1-0.3,0.2-0.5,0.2c-0.3,0-0.5-0.1-0.6-0.2
			c-0.1-0.1-0.2-0.3-0.2-0.6c0-0.1,0-0.2,0-0.3l3.7-9c0.1-0.2,0.2-0.4,0.4-0.5s0.3-0.2,0.5-0.1c0.2,0,0.3,0.1,0.5,0.2
			c0.2,0.1,0.3,0.3,0.3,0.4l3.7,8.8C178.5,23,178.6,23.1,178.6,23.2z M172.4,19.9h3l-1.5-3.5L172.4,19.9z"/>
		<path class="st2" d="M181.4,23.7c-0.2,0.2-0.4,0.3-0.7,0.3c-0.2,0-0.5-0.1-0.6-0.3s-0.3-0.4-0.3-0.7v-9.3c0-0.3,0.1-0.5,0.3-0.7
			c0.2-0.2,0.4-0.3,0.7-0.3c0.2,0,0.5,0.1,0.6,0.3c0.2,0.2,0.3,0.4,0.3,0.7v9.3C181.6,23.3,181.5,23.6,181.4,23.7z"/>
		<path class="st2" d="M185.4,23.7c-0.2,0.2-0.4,0.3-0.7,0.3c-0.2,0-0.5-0.1-0.6-0.3s-0.3-0.4-0.3-0.7v-9.3c0-0.3,0.1-0.5,0.3-0.7
			c0.2-0.2,0.4-0.3,0.7-0.3c0.2,0,0.5,0.1,0.6,0.3c0.2,0.2,0.3,0.4,0.3,0.7v9.3C185.7,23.3,185.6,23.6,185.4,23.7z"/>
	</g>
	<g class="st1">
		<path class="st2" d="M102.5,42.7c-0.2,0.2-0.4,0.3-0.7,0.3c-0.3,0-0.5-0.1-0.7-0.3c-0.2-0.2-0.3-0.4-0.3-0.7v-8.7
			c0-0.3,0.1-0.5,0.3-0.7c0.2-0.2,0.4-0.3,0.7-0.3c0.2,0,0.5,0.1,0.6,0.3c0.2,0.2,0.3,0.4,0.3,0.7v8.7
			C102.8,42.3,102.7,42.6,102.5,42.7z"/>
		<path class="st2" d="M111.3,35.7c0.4,0.6,0.6,1.4,0.6,2.5v3.8c0,0.3-0.1,0.5-0.3,0.7S111.2,43,111,43s-0.5-0.1-0.6-0.3
			s-0.3-0.4-0.3-0.7v-3.8c0-0.5-0.1-1-0.3-1.3c-0.2-0.3-0.6-0.5-1.2-0.5c-0.6,0-1,0.2-1.4,0.5s-0.5,0.8-0.5,1.3v3.8
			c0,0.3-0.1,0.5-0.3,0.7S106,43,105.8,43c-0.3,0-0.5-0.1-0.6-0.3s-0.3-0.4-0.3-0.7v-6.2c0-0.3,0.1-0.5,0.3-0.7s0.4-0.3,0.6-0.3
			c0.3,0,0.5,0.1,0.6,0.3s0.3,0.4,0.3,0.7v0.3c0.3-0.4,0.6-0.7,1.1-0.9c0.4-0.3,0.9-0.4,1.4-0.4C110.2,34.8,110.9,35.1,111.3,35.7z"
			/>
		<path class="st2" d="M121,32.2c0.2,0.2,0.3,0.4,0.3,0.7v9.3c0,0.3-0.1,0.5-0.3,0.7s-0.4,0.3-0.6,0.3c-0.3,0-0.5-0.1-0.6-0.3
			s-0.3-0.4-0.3-0.6c-0.2,0.3-0.6,0.5-1,0.7c-0.4,0.2-0.9,0.3-1.3,0.3c-0.7,0-1.3-0.2-1.9-0.5c-0.6-0.4-1-0.8-1.3-1.5
			s-0.5-1.3-0.5-2.1s0.2-1.5,0.5-2.2c0.3-0.6,0.8-1.1,1.3-1.5c0.6-0.4,1.2-0.5,1.8-0.5c0.5,0,0.9,0.1,1.3,0.3s0.8,0.4,1.1,0.7v-2.9
			c0-0.3,0.1-0.5,0.3-0.7c0.2-0.2,0.4-0.3,0.6-0.3C120.6,31.9,120.8,32,121,32.2z M118.9,40.8c0.4-0.5,0.6-1.1,0.6-1.8
			s-0.2-1.3-0.6-1.8c-0.4-0.5-0.9-0.7-1.6-0.7c-0.6,0-1.2,0.2-1.6,0.7c-0.4,0.5-0.6,1.1-0.6,1.8s0.2,1.3,0.6,1.8
			c0.4,0.5,0.9,0.7,1.6,0.7C117.9,41.5,118.5,41.3,118.9,40.8z"/>
		<path class="st2" d="M130,35.2c0.2,0.2,0.3,0.4,0.3,0.7v3.8c0,1.1-0.3,1.9-0.9,2.5c-0.6,0.6-1.4,0.9-2.5,0.9
			c-1.1,0-1.9-0.3-2.5-0.9c-0.6-0.6-0.9-1.5-0.9-2.5v-3.8c0-0.3,0.1-0.5,0.3-0.7s0.4-0.3,0.6-0.3c0.3,0,0.5,0.1,0.6,0.3
			s0.3,0.4,0.3,0.7v3.8c0,0.6,0.1,1.1,0.4,1.4c0.3,0.3,0.7,0.4,1.2,0.4c0.5,0,1-0.1,1.2-0.4c0.3-0.3,0.4-0.7,0.4-1.4v-3.8
			c0-0.3,0.1-0.5,0.3-0.7c0.2-0.2,0.4-0.3,0.6-0.3S129.8,35.1,130,35.2z"/>
		<path class="st2" d="M131.6,41.3c0-0.3,0.1-0.5,0.4-0.7c0.1-0.1,0.3-0.1,0.4-0.1c0.2,0,0.4,0.1,0.6,0.3c0.3,0.3,0.6,0.5,0.9,0.7
			c0.3,0.1,0.7,0.2,1.2,0.2c0.8,0,1.2-0.3,1.2-0.9c0-0.3-0.1-0.5-0.4-0.7c-0.3-0.2-0.7-0.3-1.2-0.5c-0.6-0.2-1.1-0.3-1.4-0.5
			s-0.7-0.4-0.9-0.7c-0.3-0.3-0.4-0.8-0.4-1.3c0-0.5,0.1-0.9,0.4-1.3c0.3-0.4,0.6-0.6,1.1-0.8c0.4-0.2,0.9-0.3,1.4-0.3
			c0.5,0,1,0.1,1.5,0.3c0.5,0.2,0.9,0.5,1.2,0.8c0.1,0.2,0.2,0.3,0.2,0.5c0,0.2-0.1,0.4-0.3,0.6c-0.1,0.1-0.3,0.2-0.5,0.2
			c-0.2,0-0.4-0.1-0.5-0.2c-0.2-0.2-0.4-0.4-0.7-0.5s-0.6-0.2-1-0.2c-0.8,0-1.1,0.3-1.1,0.8c0,0.2,0.1,0.4,0.2,0.5
			c0.1,0.1,0.3,0.2,0.5,0.3s0.5,0.2,0.9,0.3c0.5,0.1,1,0.3,1.4,0.5c0.4,0.2,0.7,0.4,0.9,0.7s0.4,0.8,0.4,1.3c0,0.5-0.1,0.9-0.4,1.3
			c-0.3,0.4-0.7,0.6-1.1,0.8c-0.5,0.2-0.9,0.3-1.4,0.3c-0.7,0-1.3-0.1-1.8-0.3c-0.6-0.2-1-0.6-1.4-1.1
			C131.7,41.6,131.6,41.5,131.6,41.3z"/>
		<path class="st2" d="M143.7,41.5c0.1,0.1,0.2,0.3,0.2,0.5c0,0.3-0.1,0.5-0.4,0.7c-0.3,0.2-0.6,0.3-1,0.3c-0.6,0-1.1-0.1-1.6-0.4
			s-0.6-0.8-0.6-1.7v-4.1h-0.7c-0.2,0-0.4-0.1-0.6-0.2s-0.2-0.4-0.2-0.6c0-0.2,0.1-0.4,0.2-0.6s0.4-0.2,0.6-0.2h0.7v-1
			c0-0.3,0.1-0.5,0.3-0.7s0.4-0.3,0.7-0.3c0.2,0,0.5,0.1,0.6,0.3s0.3,0.4,0.3,0.7v1h1.1c0.2,0,0.4,0.1,0.6,0.2
			c0.2,0.2,0.2,0.4,0.2,0.6c0,0.2-0.1,0.4-0.2,0.6c-0.2,0.2-0.4,0.2-0.6,0.2H142v4.1c0,0.2,0.1,0.4,0.2,0.5c0.1,0.1,0.3,0.1,0.4,0.1
			c0.1,0,0.2,0,0.3-0.1c0.1,0,0.2-0.1,0.3-0.1C143.4,41.3,143.6,41.4,143.7,41.5z"/>
		<path class="st2" d="M150.5,35.1c0.2,0.2,0.3,0.4,0.3,0.6c0,0.3-0.1,0.5-0.2,0.7c-0.2,0.2-0.4,0.2-0.6,0.2c-0.1,0-0.3,0-0.5-0.1
			c0,0-0.1,0-0.2-0.1c-0.1,0-0.2,0-0.3,0c-0.3,0-0.5,0.1-0.8,0.2c-0.2,0.2-0.4,0.4-0.6,0.7c-0.2,0.3-0.2,0.7-0.2,1.2v3.6
			c0,0.3-0.1,0.5-0.3,0.7s-0.4,0.3-0.6,0.3c-0.3,0-0.5-0.1-0.6-0.3s-0.3-0.4-0.3-0.7v-6.2c0-0.3,0.1-0.5,0.3-0.7s0.4-0.3,0.6-0.3
			c0.3,0,0.5,0.1,0.6,0.3s0.3,0.4,0.3,0.7v0.2c0.2-0.4,0.6-0.7,1-0.9s0.9-0.3,1.4-0.3C150,34.8,150.3,34.9,150.5,35.1z"/>
		<path class="st2" d="M152.1,33.8c-0.1-0.1-0.2-0.3-0.2-0.6V33c0-0.3,0.1-0.5,0.2-0.6c0.2-0.1,0.4-0.2,0.7-0.2
			c0.4,0,0.6,0.1,0.7,0.2c0.1,0.1,0.2,0.3,0.2,0.6v0.3c0,0.3-0.1,0.5-0.2,0.6c-0.1,0.1-0.4,0.2-0.7,0.2
			C152.5,34,152.3,33.9,152.1,33.8z M153.5,42.7c-0.2,0.2-0.4,0.3-0.6,0.3s-0.5-0.1-0.6-0.3s-0.3-0.4-0.3-0.7v-6.2
			c0-0.3,0.1-0.5,0.3-0.7s0.4-0.3,0.6-0.3s0.5,0.1,0.6,0.3c0.2,0.2,0.3,0.4,0.3,0.7v6.2C153.8,42.3,153.7,42.6,153.5,42.7z"/>
		<path class="st2" d="M162.8,35.1c0.2,0.2,0.3,0.4,0.3,0.7v6.3c0,0.3-0.1,0.5-0.3,0.7c-0.2,0.2-0.4,0.3-0.6,0.3s-0.5-0.1-0.6-0.3
			s-0.3-0.4-0.3-0.6c-0.2,0.3-0.6,0.5-1,0.7c-0.4,0.2-0.9,0.3-1.3,0.3c-0.7,0-1.3-0.2-1.9-0.5c-0.6-0.4-1-0.8-1.3-1.5
			c-0.3-0.6-0.5-1.3-0.5-2.1s0.2-1.5,0.5-2.2c0.3-0.6,0.8-1.1,1.3-1.5c0.6-0.4,1.2-0.5,1.8-0.5c0.5,0,0.9,0.1,1.4,0.3
			s0.8,0.4,1.1,0.7v0c0-0.3,0.1-0.5,0.3-0.7c0.2-0.2,0.4-0.3,0.6-0.3S162.6,34.9,162.8,35.1z M160.7,40.8c0.4-0.5,0.6-1.1,0.6-1.8
			s-0.2-1.3-0.6-1.8c-0.4-0.5-0.9-0.7-1.6-0.7c-0.6,0-1.2,0.2-1.6,0.7c-0.4,0.5-0.6,1.1-0.6,1.8s0.2,1.3,0.6,1.8
			c0.4,0.5,0.9,0.7,1.6,0.7C159.7,41.5,160.3,41.3,160.7,40.8z"/>
		<path class="st2" d="M166.7,42.7c-0.2,0.2-0.4,0.3-0.7,0.3c-0.2,0-0.5-0.1-0.6-0.3s-0.3-0.4-0.3-0.7v-9.3c0-0.3,0.1-0.5,0.3-0.7
			c0.2-0.2,0.4-0.3,0.7-0.3c0.2,0,0.5,0.1,0.6,0.3c0.2,0.2,0.3,0.4,0.3,0.7v9.3C166.9,42.3,166.8,42.6,166.7,42.7z"/>
		<path class="st2" d="M180.3,33.2c0.7,0.5,1.2,1.1,1.5,1.9c0.4,0.8,0.5,1.7,0.5,2.7c0,1-0.2,1.9-0.5,2.7c-0.4,0.8-0.9,1.4-1.5,1.9
			s-1.5,0.7-2.4,0.7h-3.6c-0.3,0-0.5-0.1-0.7-0.3s-0.3-0.4-0.3-0.7v-8.7c0-0.3,0.1-0.5,0.3-0.7s0.4-0.3,0.7-0.3h3.6
			C178.8,32.5,179.6,32.7,180.3,33.2z M179.7,40.3c0.5-0.7,0.7-1.5,0.7-2.5s-0.2-1.9-0.7-2.5c-0.5-0.7-1.1-1-2-1h-2.5v7.1h2.5
			C178.6,41.3,179.3,40.9,179.7,40.3z"/>
		<path class="st2" d="M191,39.4c-0.2,0.2-0.4,0.2-0.6,0.2h-5c0.1,0.6,0.4,1.1,0.8,1.4c0.4,0.3,0.9,0.5,1.5,0.5c0.4,0,0.7,0,1-0.1
			c0.2-0.1,0.4-0.2,0.5-0.2c0.1-0.1,0.2-0.1,0.3-0.2c0.2-0.1,0.3-0.1,0.5-0.1c0.2,0,0.4,0.1,0.5,0.2c0.2,0.1,0.2,0.3,0.2,0.5
			c0,0.3-0.1,0.5-0.4,0.7c-0.3,0.2-0.7,0.4-1.1,0.6s-0.9,0.2-1.4,0.2c-0.8,0-1.6-0.2-2.2-0.5c-0.6-0.3-1.1-0.8-1.4-1.4
			c-0.3-0.6-0.5-1.3-0.5-2.1c0-0.9,0.2-1.6,0.5-2.3c0.4-0.6,0.8-1.1,1.4-1.5c0.6-0.3,1.2-0.5,1.9-0.5c0.7,0,1.3,0.2,1.9,0.5
			c0.6,0.4,1.1,0.8,1.4,1.5c0.4,0.6,0.5,1.3,0.5,2C191.3,39,191.2,39.2,191,39.4z M185.4,38.1h3.9V38c0-0.4-0.2-0.8-0.6-1.1
			s-0.8-0.5-1.3-0.5C186.3,36.5,185.6,37,185.4,38.1z"/>
		<path class="st2" d="M192.2,41.3c0-0.3,0.1-0.5,0.4-0.7c0.1-0.1,0.3-0.1,0.4-0.1c0.2,0,0.4,0.1,0.6,0.3c0.3,0.3,0.6,0.5,0.9,0.7
			c0.3,0.1,0.7,0.2,1.2,0.2c0.8,0,1.2-0.3,1.2-0.9c0-0.3-0.1-0.5-0.4-0.7s-0.7-0.3-1.2-0.5c-0.6-0.2-1.1-0.3-1.4-0.5
			c-0.4-0.2-0.7-0.4-0.9-0.7c-0.3-0.3-0.4-0.8-0.4-1.3c0-0.5,0.1-0.9,0.4-1.3c0.3-0.4,0.6-0.6,1.1-0.8c0.4-0.2,0.9-0.3,1.4-0.3
			c0.5,0,1,0.1,1.5,0.3c0.5,0.2,0.9,0.5,1.2,0.8c0.1,0.2,0.2,0.3,0.2,0.5c0,0.2-0.1,0.4-0.3,0.6c-0.1,0.1-0.3,0.2-0.5,0.2
			c-0.2,0-0.4-0.1-0.5-0.2c-0.2-0.2-0.4-0.4-0.7-0.5s-0.6-0.2-1-0.2c-0.8,0-1.1,0.3-1.1,0.8c0,0.2,0.1,0.4,0.2,0.5
			c0.1,0.1,0.3,0.2,0.5,0.3c0.2,0.1,0.5,0.2,0.9,0.3c0.5,0.1,1,0.3,1.3,0.5c0.4,0.2,0.7,0.4,0.9,0.7s0.4,0.8,0.4,1.3
			c0,0.5-0.1,0.9-0.4,1.3c-0.3,0.4-0.7,0.6-1.1,0.8c-0.5,0.2-0.9,0.3-1.4,0.3c-0.7,0-1.3-0.1-1.8-0.3s-1-0.6-1.4-1.1
			C192.2,41.6,192.2,41.5,192.2,41.3z"/>
		<path class="st2" d="M200.1,33.8c-0.1-0.1-0.2-0.3-0.2-0.6V33c0-0.3,0.1-0.5,0.2-0.6c0.2-0.1,0.4-0.2,0.7-0.2
			c0.4,0,0.6,0.1,0.7,0.2c0.1,0.1,0.2,0.3,0.2,0.6v0.3c0,0.3-0.1,0.5-0.2,0.6c-0.1,0.1-0.4,0.2-0.7,0.2
			C200.4,34,200.2,33.9,200.1,33.8z M201.4,42.7c-0.2,0.2-0.4,0.3-0.6,0.3s-0.5-0.1-0.6-0.3s-0.3-0.4-0.3-0.7v-6.2
			c0-0.3,0.1-0.5,0.3-0.7s0.4-0.3,0.6-0.3s0.5,0.1,0.6,0.3c0.2,0.2,0.3,0.4,0.3,0.7v6.2C201.7,42.3,201.6,42.6,201.4,42.7z"/>
		<path class="st2" d="M210.8,35.1c0.2,0.2,0.3,0.4,0.3,0.7v6.7c0,1.2-0.4,2.1-1.1,2.7s-1.7,0.9-2.9,0.9c-0.3,0-0.7,0-1.2-0.2
			c-0.5-0.1-0.9-0.2-1.1-0.3c-0.5-0.2-0.7-0.5-0.7-0.9c0-0.1,0-0.1,0-0.2c0.1-0.2,0.2-0.4,0.3-0.5c0.1-0.1,0.3-0.2,0.5-0.2
			c0.1,0,0.2,0,0.3,0c0,0,0.3,0.1,0.7,0.3c0.5,0.2,0.9,0.3,1.2,0.3c0.7,0,1.3-0.1,1.7-0.4s0.5-0.7,0.5-1.3v-0.7
			c-0.2,0.3-0.6,0.6-1,0.8c-0.4,0.2-0.9,0.4-1.4,0.4c-0.7,0-1.3-0.2-1.9-0.5c-0.6-0.4-1-0.8-1.4-1.5s-0.5-1.3-0.5-2.1
			s0.2-1.5,0.5-2.2s0.8-1.1,1.3-1.5c0.6-0.4,1.2-0.5,1.9-0.5c0.5,0,1,0.1,1.4,0.3c0.4,0.2,0.8,0.5,1.1,0.8v-0.2
			c0-0.3,0.1-0.5,0.3-0.7c0.2-0.2,0.4-0.3,0.6-0.3S210.7,34.9,210.8,35.1z M208.7,40.8c0.4-0.5,0.6-1.1,0.6-1.8s-0.2-1.3-0.6-1.8
			c-0.4-0.5-1-0.7-1.6-0.7c-0.7,0-1.2,0.2-1.6,0.7c-0.4,0.5-0.6,1.1-0.6,1.8s0.2,1.3,0.6,1.8c0.4,0.5,1,0.7,1.6,0.7
			C207.7,41.5,208.3,41.3,208.7,40.8z"/>
		<path class="st2" d="M219.4,35.7c0.4,0.6,0.6,1.4,0.6,2.5v3.8c0,0.3-0.1,0.5-0.3,0.7s-0.4,0.3-0.6,0.3c-0.3,0-0.5-0.1-0.6-0.3
			s-0.3-0.4-0.3-0.7v-3.8c0-0.5-0.1-1-0.3-1.3c-0.2-0.3-0.6-0.5-1.2-0.5c-0.6,0-1,0.2-1.4,0.5s-0.5,0.8-0.5,1.3v3.8
			c0,0.3-0.1,0.5-0.3,0.7c-0.2,0.2-0.4,0.3-0.6,0.3s-0.5-0.1-0.6-0.3s-0.3-0.4-0.3-0.7v-6.2c0-0.3,0.1-0.5,0.3-0.7s0.4-0.3,0.6-0.3
			s0.5,0.1,0.6,0.3c0.2,0.2,0.3,0.4,0.3,0.7v0.3c0.3-0.4,0.6-0.7,1.1-0.9c0.4-0.3,0.9-0.4,1.4-0.4C218.3,34.8,219,35.1,219.4,35.7z"
			/>
		<path class="st2" d="M221.4,41.3c0-0.3,0.1-0.5,0.4-0.7c0.1-0.1,0.3-0.1,0.4-0.1c0.2,0,0.4,0.1,0.6,0.3c0.3,0.3,0.6,0.5,0.9,0.7
			c0.3,0.1,0.7,0.2,1.2,0.2c0.8,0,1.2-0.3,1.2-0.9c0-0.3-0.1-0.5-0.4-0.7c-0.3-0.2-0.7-0.3-1.2-0.5c-0.6-0.2-1.1-0.3-1.4-0.5
			s-0.7-0.4-0.9-0.7c-0.3-0.3-0.4-0.8-0.4-1.3c0-0.5,0.1-0.9,0.4-1.3c0.3-0.4,0.6-0.6,1.1-0.8c0.4-0.2,0.9-0.3,1.4-0.3
			c0.5,0,1,0.1,1.5,0.3c0.5,0.2,0.9,0.5,1.2,0.8c0.1,0.2,0.2,0.3,0.2,0.5c0,0.2-0.1,0.4-0.3,0.6c-0.1,0.1-0.3,0.2-0.5,0.2
			c-0.2,0-0.4-0.1-0.5-0.2c-0.2-0.2-0.4-0.4-0.7-0.5s-0.6-0.2-1-0.2c-0.8,0-1.1,0.3-1.1,0.8c0,0.2,0.1,0.4,0.2,0.5
			c0.1,0.1,0.3,0.2,0.5,0.3s0.5,0.2,0.9,0.3c0.5,0.1,1,0.3,1.4,0.5c0.4,0.2,0.7,0.4,0.9,0.7s0.4,0.8,0.4,1.3c0,0.5-0.1,0.9-0.4,1.3
			c-0.3,0.4-0.7,0.6-1.1,0.8c-0.5,0.2-0.9,0.3-1.4,0.3c-0.7,0-1.3-0.1-1.8-0.3c-0.6-0.2-1-0.6-1.4-1.1
			C221.4,41.6,221.4,41.5,221.4,41.3z"/>
	</g>
</g>
</svg>
