<?xml version="1.0" encoding="utf-8"?>
<!-- Generator: Adobe Illustrator 26.2.1, SVG Export Plug-In . SVG Version: 6.00 Build 0)  -->
<svg version="1.1" id="Button_" xmlns="http://www.w3.org/2000/svg" xmlns:xlink="http://www.w3.org/1999/xlink" x="0px" y="0px"
	 viewBox="0 0 328 60" style="enable-background:new 0 0 328 60;" xml:space="preserve">
<style type="text/css">
	.st0{fill:#B4BAC6;}
	.st1{enable-background:new    ;}
	.st2{fill:#FCFCFC;}
</style>
<g id="Group_67">
	<path id="Area" class="st0" d="M0,0h328l0,0v36c0,13.3-10.7,24-24,24H24C10.7,60,0,49.3,0,36V0L0,0z"/>
	<g class="st1">
		<path class="st2" d="M140.4,13.7c0.2,0.2,0.3,0.4,0.3,0.6c0,0.1,0,0.3-0.1,0.4l-3.7,8.7c-0.1,0.2-0.2,0.3-0.4,0.4
			c-0.2,0.1-0.3,0.2-0.5,0.2c-0.2,0-0.3-0.1-0.5-0.2s-0.3-0.2-0.3-0.4l-3.7-8.7c-0.1-0.1-0.1-0.2-0.1-0.4c0-0.3,0.1-0.5,0.3-0.7
			c0.2-0.2,0.4-0.2,0.6-0.2c0.2,0,0.3,0,0.5,0.2c0.1,0.1,0.3,0.2,0.3,0.4l3,7.1L139,14c0.1-0.2,0.2-0.3,0.3-0.4s0.3-0.2,0.5-0.2
			C140,13.5,140.3,13.6,140.4,13.7z"/>
		<path class="st2" d="M142.2,14.8c-0.1-0.1-0.2-0.3-0.2-0.6V14c0-0.3,0.1-0.5,0.2-0.6c0.2-0.1,0.4-0.2,0.7-0.2
			c0.4,0,0.6,0.1,0.7,0.2c0.1,0.1,0.2,0.3,0.2,0.6v0.3c0,0.3-0.1,0.5-0.2,0.6c-0.1,0.1-0.4,0.2-0.7,0.2
			C142.6,15,142.3,14.9,142.2,14.8z M143.6,23.7c-0.2,0.2-0.4,0.3-0.6,0.3c-0.3,0-0.5-0.1-0.6-0.3s-0.3-0.4-0.3-0.7v-6.2
			c0-0.3,0.1-0.5,0.3-0.7s0.4-0.3,0.6-0.3c0.3,0,0.5,0.1,0.6,0.3c0.2,0.2,0.3,0.4,0.3,0.7v6.2C143.8,23.3,143.7,23.6,143.6,23.7z"/>
		<path class="st2" d="M152.6,20.4c-0.2,0.2-0.4,0.2-0.6,0.2H147c0.1,0.6,0.4,1.1,0.8,1.4c0.4,0.3,0.9,0.5,1.5,0.5
			c0.4,0,0.7,0,1-0.1s0.4-0.2,0.5-0.2c0.1-0.1,0.2-0.1,0.3-0.2c0.2-0.1,0.4-0.1,0.5-0.1c0.2,0,0.4,0.1,0.5,0.2
			c0.2,0.1,0.2,0.3,0.2,0.5c0,0.3-0.1,0.5-0.4,0.7c-0.3,0.2-0.7,0.4-1.1,0.6c-0.5,0.2-0.9,0.2-1.4,0.2c-0.8,0-1.6-0.2-2.2-0.5
			c-0.6-0.3-1.1-0.8-1.4-1.4c-0.3-0.6-0.5-1.3-0.5-2.1c0-0.9,0.2-1.6,0.5-2.3c0.4-0.6,0.8-1.1,1.4-1.5c0.6-0.3,1.2-0.5,1.9-0.5
			c0.7,0,1.3,0.2,1.9,0.5c0.6,0.4,1.1,0.8,1.4,1.5c0.4,0.6,0.5,1.3,0.5,2C152.9,20,152.8,20.2,152.6,20.4z M147,19.1h3.9V19
			c0-0.4-0.2-0.8-0.6-1.1c-0.4-0.3-0.8-0.5-1.3-0.5C147.9,17.5,147.2,18,147,19.1z"/>
		<path class="st2" d="M164.2,16.2c0.2,0.2,0.2,0.4,0.2,0.7c0,0.1,0,0.2-0.1,0.3l-2.3,6.2c-0.1,0.2-0.2,0.3-0.3,0.4
			c-0.2,0.1-0.3,0.2-0.5,0.2l-0.1,0c-0.3,0-0.6-0.2-0.8-0.6l-1.3-3.7l-1.2,3.7c-0.2,0.4-0.4,0.6-0.8,0.6l-0.1,0
			c-0.2,0-0.3-0.1-0.5-0.2c-0.2-0.1-0.3-0.2-0.3-0.4l-2.3-6.2c0-0.1-0.1-0.2-0.1-0.3c0-0.2,0.1-0.5,0.2-0.7c0.2-0.2,0.4-0.3,0.7-0.3
			c0.2,0,0.4,0,0.5,0.1c0.1,0.1,0.2,0.2,0.3,0.4l1.6,4.4l1.2-3.2c0.2-0.4,0.4-0.6,0.8-0.6c0.2,0,0.4,0,0.5,0.1
			c0.1,0.1,0.2,0.2,0.3,0.4l1.2,3.1l1.6-4.3c0.1-0.2,0.2-0.3,0.3-0.4c0.1-0.1,0.3-0.1,0.6-0.1C163.9,16,164.1,16.1,164.2,16.2z"/>
		<path class="st2" d="M178.6,23.2c0,0.3-0.1,0.5-0.3,0.6c-0.2,0.2-0.4,0.2-0.6,0.2c-0.2,0-0.3-0.1-0.5-0.2
			c-0.1-0.1-0.3-0.3-0.3-0.5l-0.8-1.8h-4.5l-0.8,1.8c-0.1,0.2-0.2,0.3-0.3,0.4c-0.1,0.1-0.3,0.2-0.5,0.2c-0.3,0-0.5-0.1-0.6-0.2
			c-0.1-0.1-0.2-0.3-0.2-0.6c0-0.1,0-0.2,0-0.3l3.7-9c0.1-0.2,0.2-0.4,0.4-0.5s0.3-0.2,0.5-0.1c0.2,0,0.3,0.1,0.5,0.2
			c0.2,0.1,0.3,0.3,0.3,0.4l3.7,8.8C178.5,23,178.6,23.1,178.6,23.2z M172.4,19.9h3l-1.5-3.5L172.4,19.9z"/>
		<path class="st2" d="M181.4,23.7c-0.2,0.2-0.4,0.3-0.7,0.3c-0.2,0-0.5-0.1-0.6-0.3s-0.3-0.4-0.3-0.7v-9.3c0-0.3,0.1-0.5,0.3-0.7
			c0.2-0.2,0.4-0.3,0.7-0.3c0.2,0,0.5,0.1,0.6,0.3c0.2,0.2,0.3,0.4,0.3,0.7v9.3C181.6,23.3,181.5,23.6,181.4,23.7z"/>
		<path class="st2" d="M185.4,23.7c-0.2,0.2-0.4,0.3-0.7,0.3c-0.2,0-0.5-0.1-0.6-0.3s-0.3-0.4-0.3-0.7v-9.3c0-0.3,0.1-0.5,0.3-0.7
			c0.2-0.2,0.4-0.3,0.7-0.3c0.2,0,0.5,0.1,0.6,0.3c0.2,0.2,0.3,0.4,0.3,0.7v9.3C185.7,23.3,185.6,23.6,185.4,23.7z"/>
	</g>
	<g class="st1">
		<path class="st2" d="M117,32.7c0.2,0.2,0.2,0.4,0.2,0.7v5.4c0,0.8-0.2,1.6-0.5,2.2s-0.8,1.1-1.5,1.5c-0.6,0.4-1.4,0.5-2.2,0.5
			s-1.5-0.2-2.2-0.5c-0.6-0.4-1.1-0.9-1.5-1.5s-0.5-1.4-0.5-2.2v-5.4c0-0.3,0.1-0.5,0.3-0.7c0.2-0.2,0.4-0.3,0.7-0.3
			c0.2,0,0.5,0.1,0.6,0.3c0.2,0.2,0.3,0.4,0.3,0.7v5.4c0,0.5,0.1,0.9,0.3,1.3s0.5,0.7,0.8,0.9c0.4,0.2,0.7,0.3,1.1,0.3
			c0.4,0,0.8-0.1,1.2-0.3c0.4-0.2,0.7-0.5,0.9-0.9c0.2-0.4,0.3-0.8,0.3-1.3v-5.4c0-0.3,0.1-0.5,0.2-0.7c0.2-0.2,0.4-0.3,0.6-0.3
			C116.7,32.5,116.9,32.6,117,32.7z"/>
		<path class="st2" d="M121.1,42.7c-0.2,0.2-0.4,0.3-0.7,0.3c-0.3,0-0.5-0.1-0.7-0.3c-0.2-0.2-0.3-0.4-0.3-0.7v-8.7
			c0-0.3,0.1-0.5,0.3-0.7s0.4-0.3,0.7-0.3c0.2,0,0.5,0.1,0.6,0.3s0.3,0.4,0.3,0.7v8.7C121.4,42.3,121.3,42.6,121.1,42.7z"/>
		<path class="st2" d="M123.3,44.8c-0.2-0.1-0.3-0.3-0.3-0.5c0-0.1,0-0.2,0.1-0.4l6.1-12.5c0.1-0.1,0.2-0.2,0.3-0.3s0.2-0.1,0.4-0.1
			c0.2,0,0.4,0.1,0.5,0.2c0.2,0.1,0.2,0.3,0.2,0.5c0,0.1,0,0.2-0.1,0.4l-6.1,12.5c-0.1,0.1-0.2,0.2-0.3,0.3
			c-0.1,0.1-0.2,0.1-0.4,0.1C123.6,45,123.4,44.9,123.3,44.8z"/>
		<path class="st2" d="M140.3,32.7c0.2,0.2,0.2,0.4,0.2,0.7v5.4c0,0.8-0.2,1.6-0.5,2.2s-0.8,1.1-1.5,1.5c-0.6,0.4-1.4,0.5-2.2,0.5
			s-1.5-0.2-2.2-0.5c-0.6-0.4-1.1-0.9-1.5-1.5s-0.5-1.4-0.5-2.2v-5.4c0-0.3,0.1-0.5,0.3-0.7c0.2-0.2,0.4-0.3,0.7-0.3
			c0.2,0,0.5,0.1,0.6,0.3c0.2,0.2,0.3,0.4,0.3,0.7v5.4c0,0.5,0.1,0.9,0.3,1.3s0.5,0.7,0.8,0.9c0.4,0.2,0.7,0.3,1.1,0.3
			c0.4,0,0.8-0.1,1.2-0.3c0.4-0.2,0.7-0.5,0.9-0.9c0.2-0.4,0.3-0.8,0.3-1.3v-5.4c0-0.3,0.1-0.5,0.2-0.7c0.2-0.2,0.4-0.3,0.6-0.3
			C139.9,32.5,140.1,32.6,140.3,32.7z"/>
		<path class="st2" d="M150.4,41.6c0.1,0.2,0.2,0.3,0.2,0.6c0,0.3-0.1,0.5-0.3,0.6s-0.4,0.3-0.6,0.3c-0.3,0-0.5-0.1-0.7-0.4
			l-2.7-3.6l-2.6,3.5c-0.2,0.3-0.4,0.4-0.8,0.4c-0.2,0-0.4-0.1-0.6-0.2c-0.2-0.2-0.2-0.3-0.2-0.6c0-0.2,0.1-0.4,0.2-0.6l2.9-3.9
			l-2.9-3.8c-0.1-0.2-0.2-0.3-0.2-0.5c0-0.2,0.1-0.5,0.3-0.6c0.2-0.2,0.4-0.3,0.6-0.3c0.3,0,0.5,0.1,0.7,0.4l2.6,3.5l2.6-3.4
			c0.1-0.1,0.2-0.2,0.3-0.3s0.3-0.1,0.4-0.1c0.2,0,0.4,0.1,0.6,0.3c0.2,0.2,0.3,0.4,0.3,0.6c0,0.2-0.1,0.4-0.2,0.5l-2.9,3.9
			L150.4,41.6z"/>
		<path class="st2" d="M162.4,33c0.5,0.3,0.8,0.7,1.1,1.2c0.3,0.5,0.4,1.1,0.4,1.7c0,0.6-0.1,1.2-0.4,1.7c-0.3,0.5-0.6,0.9-1.1,1.2
			c-0.5,0.3-0.9,0.5-1.5,0.5h-2.6v2.8c0,0.3-0.1,0.5-0.2,0.7s-0.4,0.3-0.6,0.3c-0.2,0-0.5-0.1-0.6-0.3c-0.2-0.2-0.2-0.4-0.2-0.7
			v-8.7c0-0.3,0.1-0.5,0.3-0.7c0.2-0.2,0.4-0.3,0.7-0.3h3.4C161.5,32.5,162,32.7,162.4,33z M161.5,37.3c0.2-0.2,0.3-0.4,0.5-0.6
			c0.1-0.3,0.2-0.5,0.2-0.8s-0.1-0.5-0.2-0.8c-0.1-0.3-0.3-0.5-0.5-0.6c-0.2-0.2-0.4-0.2-0.6-0.2h-2.6v3.3h2.6
			C161.2,37.5,161.3,37.5,161.5,37.3z"/>
		<path class="st2" d="M170.5,35.1c0.2,0.2,0.3,0.4,0.3,0.6c0,0.3-0.1,0.5-0.2,0.7c-0.2,0.2-0.4,0.2-0.6,0.2c-0.1,0-0.3,0-0.5-0.1
			c0,0-0.1,0-0.2-0.1c-0.1,0-0.2,0-0.3,0c-0.3,0-0.5,0.1-0.8,0.2c-0.2,0.2-0.4,0.4-0.6,0.7c-0.2,0.3-0.2,0.7-0.2,1.2v3.6
			c0,0.3-0.1,0.5-0.3,0.7s-0.4,0.3-0.6,0.3c-0.3,0-0.5-0.1-0.6-0.3s-0.3-0.4-0.3-0.7v-6.2c0-0.3,0.1-0.5,0.3-0.7s0.4-0.3,0.6-0.3
			c0.3,0,0.5,0.1,0.6,0.3s0.3,0.4,0.3,0.7v0.2c0.2-0.4,0.6-0.7,1-0.9s0.9-0.3,1.4-0.3C170,34.8,170.3,34.9,170.5,35.1z"/>
		<path class="st2" d="M178.9,41.1c-0.4,0.6-0.9,1.1-1.5,1.5c-0.6,0.4-1.3,0.5-2.1,0.5c-0.8,0-1.5-0.2-2.1-0.5
			c-0.6-0.3-1.1-0.8-1.5-1.5c-0.4-0.6-0.5-1.4-0.5-2.2s0.2-1.5,0.5-2.2c0.4-0.6,0.8-1.1,1.5-1.5c0.6-0.4,1.3-0.5,2.1-0.5
			c0.8,0,1.4,0.2,2.1,0.5c0.6,0.4,1.1,0.9,1.5,1.5c0.4,0.6,0.5,1.4,0.5,2.2S179.2,40.5,178.9,41.1z M177.3,37.7
			c-0.2-0.4-0.5-0.7-0.8-0.9s-0.7-0.3-1.1-0.3s-0.8,0.1-1.1,0.3c-0.3,0.2-0.6,0.5-0.8,0.9s-0.3,0.8-0.3,1.3s0.1,0.9,0.3,1.3
			s0.5,0.7,0.8,0.9c0.3,0.2,0.7,0.3,1.1,0.3s0.8-0.1,1.1-0.3s0.6-0.5,0.8-0.9c0.2-0.4,0.3-0.8,0.3-1.3S177.5,38.1,177.3,37.7z"/>
		<path class="st2" d="M179.9,45.7c-0.2-0.2-0.2-0.4-0.2-0.6v-0.2c0-0.4,0.3-0.7,0.8-0.8c0.3-0.1,0.5-0.3,0.6-0.5s0.1-0.6,0.1-1
			v-6.7c0-0.3,0.1-0.5,0.3-0.7s0.4-0.3,0.6-0.3c0.3,0,0.5,0.1,0.6,0.3s0.3,0.4,0.3,0.7v7.3c0,0.6-0.1,1-0.3,1.5s-0.5,0.7-0.9,1
			c-0.4,0.2-0.8,0.3-1.3,0.3C180.2,45.9,180,45.9,179.9,45.7z M181.3,33.8c-0.1-0.1-0.2-0.3-0.2-0.6V33c0-0.3,0.1-0.5,0.2-0.6
			c0.2-0.1,0.4-0.2,0.7-0.2c0.4,0,0.6,0.1,0.7,0.2c0.1,0.1,0.2,0.3,0.2,0.6v0.3c0,0.3-0.1,0.5-0.2,0.6c-0.1,0.1-0.4,0.2-0.7,0.2
			C181.7,34,181.4,33.9,181.3,33.8z"/>
		<path class="st2" d="M192,39.4c-0.2,0.2-0.4,0.2-0.6,0.2h-4.9c0.1,0.6,0.4,1.1,0.8,1.4c0.4,0.3,0.9,0.5,1.5,0.5c0.4,0,0.7,0,1-0.1
			c0.2-0.1,0.4-0.2,0.5-0.2s0.2-0.1,0.3-0.2c0.2-0.1,0.4-0.1,0.5-0.1c0.2,0,0.4,0.1,0.5,0.2c0.2,0.1,0.2,0.3,0.2,0.5
			c0,0.3-0.1,0.5-0.4,0.7c-0.3,0.2-0.7,0.4-1.1,0.6c-0.5,0.2-0.9,0.2-1.4,0.2c-0.8,0-1.6-0.2-2.2-0.5c-0.6-0.3-1.1-0.8-1.4-1.4
			s-0.5-1.3-0.5-2.1c0-0.9,0.2-1.6,0.5-2.3c0.4-0.6,0.8-1.1,1.4-1.5c0.6-0.3,1.2-0.5,1.9-0.5c0.7,0,1.3,0.2,1.9,0.5
			c0.6,0.4,1.1,0.8,1.4,1.5c0.3,0.6,0.5,1.3,0.5,2C192.2,39,192.1,39.2,192,39.4z M186.4,38.1h3.9V38c0-0.4-0.2-0.8-0.6-1.1
			c-0.4-0.3-0.8-0.5-1.3-0.5C187.3,36.5,186.6,37,186.4,38.1z"/>
		<path class="st2" d="M199.3,35.2c0.5,0.3,0.8,0.6,0.8,1.1c0,0.2-0.1,0.4-0.2,0.6s-0.3,0.2-0.5,0.2c-0.2,0-0.3,0-0.4-0.1
			c-0.1,0-0.2-0.1-0.3-0.2s-0.2-0.1-0.3-0.2c-0.1,0-0.2-0.1-0.4-0.1s-0.4-0.1-0.5-0.1c-0.8,0-1.3,0.2-1.8,0.7
			c-0.4,0.5-0.6,1.1-0.6,1.8c0,0.7,0.2,1.3,0.6,1.8c0.4,0.5,1,0.7,1.7,0.7c0.5,0,0.9-0.1,1.1-0.2c0.1,0,0.1-0.1,0.2-0.2
			c0.1-0.1,0.2-0.1,0.3-0.2s0.2-0.1,0.3-0.1c0.2,0,0.4,0.1,0.6,0.2c0.1,0.2,0.2,0.4,0.2,0.6c0,0.2-0.1,0.5-0.4,0.7s-0.7,0.4-1.1,0.5
			c-0.5,0.1-1,0.2-1.5,0.2c-0.8,0-1.4-0.2-2-0.5c-0.6-0.4-1-0.9-1.4-1.5c-0.3-0.6-0.5-1.3-0.5-2.1c0-0.8,0.2-1.5,0.5-2.2
			s0.8-1.1,1.4-1.5c0.6-0.4,1.3-0.5,2-0.5C198.1,34.8,198.8,35,199.3,35.2z"/>
		<path class="st2" d="M205.7,41.5c0.1,0.1,0.2,0.3,0.2,0.5c0,0.3-0.1,0.5-0.4,0.7c-0.3,0.2-0.6,0.3-1,0.3c-0.6,0-1.1-0.1-1.6-0.4
			s-0.6-0.8-0.6-1.7v-4.1h-0.7c-0.2,0-0.4-0.1-0.6-0.2s-0.2-0.4-0.2-0.6c0-0.2,0.1-0.4,0.2-0.6s0.4-0.2,0.6-0.2h0.7v-1
			c0-0.3,0.1-0.5,0.3-0.7s0.4-0.3,0.7-0.3c0.2,0,0.5,0.1,0.6,0.3s0.3,0.4,0.3,0.7v1h1.1c0.2,0,0.4,0.1,0.6,0.2
			c0.2,0.2,0.2,0.4,0.2,0.6c0,0.2-0.1,0.4-0.2,0.6c-0.2,0.2-0.4,0.2-0.6,0.2H204v4.1c0,0.2,0.1,0.4,0.2,0.5c0.1,0.1,0.3,0.1,0.4,0.1
			c0.1,0,0.2,0,0.3-0.1c0.1,0,0.2-0.1,0.3-0.1C205.5,41.3,205.6,41.4,205.7,41.5z"/>
		<path class="st2" d="M207.3,41.3c0-0.3,0.1-0.5,0.4-0.7c0.1-0.1,0.3-0.1,0.4-0.1c0.2,0,0.4,0.1,0.6,0.3c0.3,0.3,0.6,0.5,0.9,0.7
			c0.3,0.1,0.7,0.2,1.2,0.2c0.8,0,1.2-0.3,1.2-0.9c0-0.3-0.1-0.5-0.4-0.7s-0.7-0.3-1.2-0.5c-0.6-0.2-1.1-0.3-1.4-0.5
			c-0.4-0.2-0.7-0.4-0.9-0.7c-0.3-0.3-0.4-0.8-0.4-1.3c0-0.5,0.1-0.9,0.4-1.3c0.3-0.4,0.6-0.6,1.1-0.8c0.4-0.2,0.9-0.3,1.4-0.3
			c0.5,0,1,0.1,1.5,0.3c0.5,0.2,0.9,0.5,1.2,0.8c0.1,0.2,0.2,0.3,0.2,0.5c0,0.2-0.1,0.4-0.3,0.6c-0.1,0.1-0.3,0.2-0.5,0.2
			c-0.2,0-0.4-0.1-0.5-0.2c-0.2-0.2-0.4-0.4-0.7-0.5s-0.6-0.2-1-0.2c-0.8,0-1.1,0.3-1.1,0.8c0,0.2,0.1,0.4,0.2,0.5
			c0.1,0.1,0.3,0.2,0.5,0.3c0.2,0.1,0.5,0.2,0.9,0.3c0.5,0.1,1,0.3,1.3,0.5c0.4,0.2,0.7,0.4,0.9,0.7s0.4,0.8,0.4,1.3
			c0,0.5-0.1,0.9-0.4,1.3c-0.3,0.4-0.7,0.6-1.1,0.8c-0.5,0.2-0.9,0.3-1.4,0.3c-0.7,0-1.3-0.1-1.8-0.3s-1-0.6-1.4-1.1
			C207.3,41.6,207.3,41.5,207.3,41.3z"/>
	</g>
</g>
</svg>
